<svg xmlns="http://www.w3.org/2000/svg" enable-background="new 0 0 400 400" viewBox="0 0 400 400" id="cloud-privacy"><path fill="#d3dcfb" d="M292.3,179.51h-17.71c0.93-2.64,1.45-5.49,1.45-8.45c0-14-11.35-25.34-25.34-25.34
			c0-27.99-22.69-50.69-50.69-50.69c-27.99,0-50.69,22.69-50.69,50.69c-14,0-25.34,11.35-25.34,25.34c0,2.96,0.51,5.81,1.45,8.45
			H107.7c-7,0-12.67,5.67-12.67,12.67v0c0,7,5.67,12.67,12.67,12.67H292.3c7,0,12.67-5.67,12.67-12.67v0
			C304.97,185.19,299.29,179.51,292.3,179.51z"></path><rect width="67.59" height="42.24" x="166.21" y="220.49" fill="#ffb332"></rect><path fill="#47477f" d="M202.11,247.94h-4.22c-3.5,0-6.34-2.84-6.34-6.34l0,0c0-3.5,2.84-6.34,6.34-6.34h4.22
			c3.5,0,6.34,2.84,6.34,6.34l0,0C208.45,245.11,205.61,247.94,202.11,247.94z"></path><rect width="147.84" height="25.34" x="126.08" y="279.62" fill="#42c3fc"></rect><rect width="25.34" height="25.34" x="248.58" y="279.62" fill="#47477f"></rect><g><path fill="#2d2d59" d="M292.3,176.35h-13.59c0.33-1.73,0.49-3.5,0.49-5.28c0-14.68-11.15-26.8-25.43-28.35
			c-1.56-28.31-25.09-50.85-53.77-50.85s-52.21,22.55-53.77,50.85c-14.28,1.54-25.43,13.67-25.43,28.35c0,1.78,0.16,3.55,0.49,5.28
			H107.7c-8.73,0-15.84,7.11-15.84,15.84c0,8.73,7.11,15.84,15.84,15.84h68.01v9.29h-9.5c-1.75,0-3.17,1.42-3.17,3.17v42.24
			c0,1.75,1.42,3.17,3.17,3.17h67.59c1.75,0,3.17-1.42,3.17-3.17v-42.24c0-1.75-1.42-3.17-3.17-3.17h-9.5v-9.29h68.01
			c8.73,0,15.84-7.11,15.84-15.84C308.14,183.45,301.03,176.35,292.3,176.35z M230.62,259.56h-61.25v-35.9h61.25V259.56z
			 M217.95,217.32h-35.9v-9.29h35.9V217.32z M217.95,201.69h-35.9v-15c0-9.9,8.05-17.95,17.95-17.95c9.9,0,17.95,8.05,17.95,17.95
			V201.69z M292.3,201.69h-68.01v-15c0-13.39-10.9-24.29-24.29-24.29s-24.29,10.9-24.29,24.29v15H107.7c-5.24,0-9.5-4.26-9.5-9.5
			c0-5.24,4.26-9.5,9.5-9.5h17.71c1.03,0,1.99-0.5,2.59-1.34c0.59-0.84,0.74-1.92,0.4-2.89c-0.84-2.38-1.27-4.86-1.27-7.39
			c0-12.23,9.95-22.18,22.18-22.18c1.75,0,3.17-1.42,3.17-3.17c0-26.2,21.32-47.52,47.52-47.52c26.2,0,47.52,21.32,47.52,47.52
			c0,1.75,1.42,3.17,3.17,3.17c12.23,0,22.18,9.95,22.18,22.18c0,1.79-0.22,3.56-0.64,5.28h-21.54c-1.75,0-3.17,1.42-3.17,3.17
			c0,1.75,1.42,3.17,3.17,3.17h41.61c5.24,0,9.5,4.26,9.5,9.5C301.8,197.43,297.54,201.69,292.3,201.69z"></path><path fill="#2d2d59" d="M234.99 133.81c-2.88-8.43-8.71-15.55-16.44-20.05-1.51-.88-3.45-.37-4.33 1.14-.88 1.51-.37 3.45 1.14 4.33 6.41 3.73 11.25 9.63 13.63 16.62.45 1.32 1.68 2.15 3 2.15.34 0 .68-.05 1.02-.17C234.67 137.26 235.56 135.46 234.99 133.81zM197.89 251.11h4.22c5.24 0 9.5-4.26 9.5-9.5 0-5.24-4.26-9.5-9.5-9.5h-4.22c-5.24 0-9.5 4.26-9.5 9.5C188.38 246.85 192.65 251.11 197.89 251.11zM197.89 238.44h4.22c1.75 0 3.17 1.42 3.17 3.17 0 1.75-1.42 3.17-3.17 3.17h-4.22c-1.75 0-3.17-1.42-3.17-3.17C194.72 239.86 196.14 238.44 197.89 238.44zM273.92 276.46H126.08c-1.75 0-3.17 1.42-3.17 3.17v25.34c0 1.75 1.42 3.17 3.17 3.17h147.84c1.75 0 3.17-1.42 3.17-3.17v-25.34C277.09 277.87 275.67 276.46 273.92 276.46zM129.25 282.79h116.16v19.01H129.25V282.79zM270.75 301.8h-19.01v-19.01h19.01V301.8z"></path><path fill="#2d2d59" d="M158.82 289.13h-6.34c-1.75 0-3.17 1.42-3.17 3.17 0 1.75 1.42 3.17 3.17 3.17h6.34c1.75 0 3.17-1.42 3.17-3.17C161.98 290.55 160.57 289.13 158.82 289.13zM179.94 289.13h-6.34c-1.75 0-3.17 1.42-3.17 3.17 0 1.75 1.42 3.17 3.17 3.17h6.34c1.75 0 3.17-1.42 3.17-3.17C183.1 290.55 181.69 289.13 179.94 289.13zM201.06 289.13h-6.34c-1.75 0-3.17 1.42-3.17 3.17 0 1.75 1.42 3.17 3.17 3.17h6.34c1.75 0 3.17-1.42 3.17-3.17C204.22 290.55 202.81 289.13 201.06 289.13zM222.18 289.13h-6.34c-1.75 0-3.17 1.42-3.17 3.17 0 1.75 1.42 3.17 3.17 3.17h6.34c1.75 0 3.17-1.42 3.17-3.17C225.34 290.55 223.93 289.13 222.18 289.13zM240.13 176.35h-2.11c-1.75 0-3.17 1.42-3.17 3.17 0 1.75 1.42 3.17 3.17 3.17h2.11c1.75 0 3.17-1.42 3.17-3.17C243.3 177.76 241.88 176.35 240.13 176.35z"></path></g></svg>